<svg width="300" height="300" viewBox="0 0 300 300" fill="none" xmlns="http://www.w3.org/2000/svg">
<path d="M112.719 48.7823C112.688 48.8385 112.671 48.9018 112.672 48.9662C112.672 49.0305 112.69 49.0935 112.722 49.1493C112.754 49.205 112.8 49.2514 112.855 49.284C112.911 49.3167 112.974 49.3344 113.038 49.3355H132.9C132.964 49.3344 133.027 49.3167 133.082 49.284C133.138 49.2514 133.184 49.205 133.216 49.1493C133.248 49.0935 133.265 49.0305 133.266 48.9662C133.266 48.9018 133.25 48.8385 133.219 48.7823L123.293 31.4631C123.261 31.4056 123.214 31.3577 123.157 31.3243C123.1 31.291 123.035 31.2734 122.969 31.2734C122.903 31.2734 122.838 31.291 122.781 31.3243C122.724 31.3577 122.677 31.4056 122.644 31.4631L112.719 48.7823Z" stroke="#EEF7FF" stroke-width="2"/>
<path d="M168.086 48.1601C165.144 35.9048 148.096 34.5591 144.229 46.6123C142.985 50.4952 143.772 56.4474 143.995 60.9048" stroke="#C2C0FF" stroke-width="2"/>
<path d="M143.996 60.9045C136.542 62.2485 130.699 62.917 126.469 62.9099C121.749 62.9028 118.391 62.7113 116.394 62.3354C111.634 61.4311 106.203 60.112 101.9 60.0322C95.1374 59.9116 89.2881 62.0322 84.3519 66.3939C78.4618 71.5925 76.2845 78.1368 77.82 86.0269C79.6551 95.5003 83.7083 104.351 85.8572 112.639C85.8822 112.736 85.8874 112.832 85.8723 112.916C85.8571 112.999 85.8223 113.065 85.7721 113.107L85.5062 113.319" stroke="#EEF7FF" stroke-width="2"/>
<path d="M85.5058 113.319C82.8409 111.324 77.4526 109.899 72.3728 108.213C71.1388 107.801 69.2469 106.878 66.6973 105.441" stroke="#F6DAD1" stroke-width="2"/>
<path d="M66.697 105.442C65.9346 104.807 65.025 104.352 63.9683 104.075C55.7023 101.905 53.0906 108.219 56.9523 114.405" stroke="#8EA4CF" stroke-width="2"/>
<path d="M56.9525 114.405C57.1262 115.359 57.0163 116.32 56.6227 117.288C56.5701 117.418 56.5672 117.563 56.6146 117.693C56.6619 117.823 56.7559 117.929 56.878 117.99L60.3354 119.719C60.4164 119.759 60.4985 119.786 60.577 119.798C60.6555 119.81 60.7289 119.806 60.7929 119.788C63.2876 119.07 61.394 116.57 63.2237 116.048C63.4013 115.997 63.5456 115.897 63.628 115.767C64.9365 113.731 65.5801 111.497 65.5589 109.064" stroke="#F6DAD1" stroke-width="2"/>
<path d="M65.5586 109.064L66.6011 109.442" stroke="#8EA4CF" stroke-width="2"/>
<path d="M66.6016 109.441L78.4473 115.016C79.0785 115.314 79.0466 115.585 78.3516 115.83L74.6228 117.154" stroke="#F6DAD1" stroke-width="2"/>
<path d="M74.6223 117.155C74.3032 116.47 73.8457 116.337 73.25 116.756" stroke="#96B1DB" stroke-width="2"/>
<path d="M73.2505 116.756L69.6016 117.777" stroke="#8AA4CD" stroke-width="2"/>
<path d="M69.6018 117.777L64.7295 119.331" stroke="#96B1DB" stroke-width="2"/>
<path d="M64.7293 119.33L63.1868 121.851C62.9988 122.156 62.818 122.139 62.6442 121.798C62.3144 121.142 61.8393 120.635 61.2187 120.277C61.1931 120.261 61.1626 120.257 61.1294 120.264C61.0962 120.271 61.061 120.288 61.0262 120.316C60.9914 120.344 60.9578 120.381 60.9277 120.425C60.8976 120.468 60.8717 120.518 60.8517 120.569L60.1549 122.383C60.1452 122.411 60.1246 122.432 60.0947 122.446C60.0648 122.46 60.0262 122.466 59.9816 122.464C59.937 122.462 59.8876 122.452 59.8366 122.434C59.7857 122.417 59.7346 122.392 59.6868 122.362L58.1123 121.389" stroke="#BDD9FD" stroke-width="2"/>
<path d="M58.1119 121.389C55.2183 118.958 53.3406 118.522 49.8672 120.325" stroke="#B4CEED" stroke-width="2"/>
<path d="M49.867 120.325C48.3173 120.747 47.3936 121.729 47.0957 123.272" stroke="#8EA4CF" stroke-width="2"/>
<path d="M47.0959 123.271C46.7413 124.488 46.697 125.812 46.963 127.245" stroke="#96B1DB" stroke-width="2"/>
<path d="M46.9629 127.245L47.7342 131.282" stroke="#8EA4CF" stroke-width="2"/>
<path d="M47.7344 131.282C48.3018 132.69 48.6652 134.054 48.8248 135.373" stroke="#96B1DB" stroke-width="2"/>
<path d="M48.8252 135.373L49.0912 142.155" stroke="#C6DDFA" stroke-width="2"/>
<path d="M49.0909 142.154L49.0537 146.069" stroke="#BDD9FD" stroke-width="2"/>
<path d="M49.0538 146.069L48.708 150.623" stroke="#C6E3FF" stroke-width="2"/>
<path d="M48.7075 150.623L48.4043 154.368" stroke="#BDDFFE" stroke-width="2"/>
<path d="M48.4044 154.367C47.9789 156.396 47.853 158.442 48.0267 160.505" stroke="#C9E7FE" stroke-width="2"/>
<path d="M48.0266 160.506C47.1914 175.458 47.8085 193.463 48.1489 221.118C48.1506 221.197 48.176 221.274 48.2217 221.337C48.2673 221.401 48.331 221.449 48.4042 221.474L49.0691 221.697" stroke="#8EA4CF" stroke-width="2"/>
<path d="M49.0699 221.697L48.8252 223.804" stroke="#F0DCDA" stroke-width="2"/>
<path d="M48.8244 223.804L48.2979 225.942" stroke="#8EA4CF" stroke-width="2"/>
<path d="M48.2983 225.942C43.0164 225.878 34.8568 226.442 29.1334 228.197C28.2398 228.474 27.9774 229.006 28.3462 229.793C28.4152 229.942 28.5402 230.07 28.7026 230.16C32.0058 231.963 36.6334 232.256 40.8355 232.628C48.8107 233.33 56.7965 233.633 64.793 233.538C68.5749 233.49 94.8249 233.011 95.6972 229.394C95.7164 229.318 95.712 229.236 95.6847 229.16C95.6573 229.084 95.6081 229.015 95.543 228.963C94.6529 228.265 93.6423 227.8 92.5111 227.57C85.5891 226.169 78.5944 225.603 71.527 225.873" stroke="#EEF7FF" stroke-width="2"/>
<path d="M71.5274 225.873C70.5451 225.188 69.6639 224.226 68.8838 222.984" stroke="#8EA4CF" stroke-width="2"/>
<path d="M68.8838 222.985V221.432" stroke="#F0DCDA" stroke-width="2"/>
<path d="M68.8838 221.431C69.6178 221.47 70.0203 221.11 70.0912 220.351C71.8785 201.653 72.7668 183.681 72.7561 166.436C72.7561 165.039 72.6941 163.66 72.57 162.298C72.4317 160.795 72.2951 159.42 72.1604 158.176" stroke="#8EA4CF" stroke-width="2"/>
<path d="M72.1596 158.176L71.1543 151.713" stroke="#C9E7FE" stroke-width="2"/>
<path d="M71.1543 151.713L70.8564 150" stroke="#BDDFFE" stroke-width="2"/>
<path d="M70.8569 150L70.458 145.878" stroke="#C6E3FF" stroke-width="2"/>
<path d="M70.4583 145.878L70.1924 141.489" stroke="#BDD9FD" stroke-width="2"/>
<path d="M70.1924 141.489C71.8874 140.287 73.6711 139.278 75.5434 138.463" stroke="#F6DAD1" stroke-width="2"/>
<path d="M75.543 138.463C76.6919 139.048 77.7965 139.222 78.8568 138.984" stroke="#94A3C7" stroke-width="2"/>
<path d="M78.8567 138.984C78.5481 139.788 78.6599 140.681 78.4311 141.389C76.0801 148.532 75.7769 156.873 80.7024 163.048C85.9329 169.608 92.8354 173.878 101.41 175.857" stroke="#EEF7FF" stroke-width="2"/>
<path d="M101.41 175.857L97.4844 182.745C97.4412 182.819 97.4183 182.903 97.418 182.988C97.4177 183.074 97.44 183.158 97.4827 183.232C97.5254 183.306 97.5869 183.367 97.661 183.41C97.7351 183.452 97.8191 183.474 97.9046 183.474L124.74 183.479C124.847 183.48 124.951 183.451 125.042 183.395C125.133 183.34 125.208 183.259 125.26 183.162C125.311 183.065 125.336 182.955 125.334 182.843C125.331 182.73 125.301 182.62 125.245 182.522L121.085 175.245" stroke="#C2C0FF" stroke-width="2"/>
<path d="M121.086 175.246C124.504 174.143 128.251 172.332 132.325 169.815C137.066 166.882 140.824 164.222 143.597 161.836" stroke="#EEF7FF" stroke-width="2"/>
<path d="M143.596 161.835C149.798 177.394 171.899 170.793 168.505 153.724" stroke="#CBB9FF" stroke-width="2"/>
<path d="M168.506 153.724C181.309 153.559 193.852 155.07 206.57 156.25C221.065 157.601 242.863 155.091 247.714 137.867C250.123 129.304 245.746 122.91 241.123 115.793C234.247 105.211 230.605 93.4295 230.198 80.4472C230.027 75.0678 229.855 69.6883 229.682 64.3089C229.081 45.5802 218.703 36.5217 200.166 37.9631C189.256 38.8142 177.331 41.7717 168.086 48.16" stroke="#EEF7FF" stroke-width="2"/>
<path d="M168.505 153.724C162.612 137.346 138.825 144.867 143.596 161.835" stroke="#BAB1FF" stroke-width="2"/>
<path d="M121.086 175.245L112.123 159.814C111.648 158.999 111.173 159.001 110.697 159.82L101.41 175.857" stroke="#B1B8FF" stroke-width="2"/>
<path d="M78.8564 138.984L81.915 139.101C82.0108 139.106 82.1075 139.079 82.1928 139.023C82.2781 138.967 82.3481 138.885 82.3937 138.787L87.7022 127.346C87.7152 127.319 87.7207 127.289 87.7182 127.259C87.7157 127.23 87.7054 127.2 87.688 127.175C87.6706 127.149 87.6468 127.127 87.6187 127.112C87.5905 127.096 87.5589 127.087 87.5267 127.085L82.8458 126.974" stroke="#829BC7" stroke-width="2"/>
<path d="M82.8457 126.973C83.8918 124.661 84.4769 122.234 84.601 119.691" stroke="#EEF7FF" stroke-width="2"/>
<path d="M84.6016 119.692C87.1796 117.844 87.481 115.72 85.5058 113.319" stroke="#E4D2D1" stroke-width="2"/>
<path d="M143.995 60.9043L144.394 71.0107" stroke="#B1B8FF" stroke-width="2"/>
<path d="M144.394 71.0107L141.069 71.4097" stroke="#A4CEFE" stroke-width="2"/>
<path d="M141.07 71.4102C123.027 73.935 106.736 80.5697 92.1972 91.3144C88.91 93.7453 85.9951 96.9102 90.027 100.447C92.0589 102.235 94.4898 101.57 96.5164 100.017C109.609 90.0059 124.328 83.646 140.676 80.9368" stroke="#B0DCFF" stroke-width="2"/>
<path d="M140.676 80.9362L144.926 80.4521" stroke="#A4CEFE" stroke-width="2"/>
<path d="M144.926 80.4521L145.553 95.7394" stroke="#B1B8FF" stroke-width="2"/>
<path d="M145.553 95.7393L142.309 96.1382" stroke="#A4CEFE" stroke-width="2"/>
<path d="M142.309 96.1387C128.621 98.4578 116.334 103.827 105.447 112.245C104.511 112.968 103.88 113.648 103.554 114.282C101.697 117.894 105.027 122.197 108.963 120.99C109.641 120.784 110.681 120.151 112.086 119.091C121.227 112.215 131.476 107.745 142.83 105.681" stroke="#B0DCFF" stroke-width="2"/>
<path d="M142.83 105.681L145.99 105.187" stroke="#A4CEFE" stroke-width="2"/>
<path d="M145.99 105.187L146.74 122.032" stroke="#B1B8FF" stroke-width="2"/>
<path d="M146.74 122.032C137.809 123.559 130.166 126.857 122.57 132.272C120.783 133.543 119.075 134.623 118.793 136.878C118.267 141.101 123.118 143.819 126.437 141.208C132.93 136.101 139.98 132.871 147.586 131.516" stroke="#B0DCFF" stroke-width="2"/>
<path d="M147.586 131.517C151.246 139.001 160.788 139.219 164.32 131.469" stroke="#B1B8FF" stroke-width="2"/>
<path d="M164.319 131.469C171.993 132.962 178.883 136.056 184.99 140.751C190.341 144.868 195.915 138.474 191.809 134.187C191.497 133.861 190.412 133.036 188.553 131.713C181.55 126.724 173.759 123.511 165.181 122.075" stroke="#A2CBFF" stroke-width="2"/>
<path d="M165.182 122.075L165.932 105.293" stroke="#B1B8FF" stroke-width="2"/>
<path d="M165.932 105.293C178.426 106.671 190.416 111.969 200.389 119.495C201.499 120.336 202.401 120.839 203.097 121.006C207.698 122.112 210.612 116.575 207.522 113.197C207.199 112.843 206.166 112.034 204.421 110.772C193.081 102.556 180.4 97.5024 166.378 95.6123" stroke="#A2CBFF" stroke-width="2"/>
<path d="M166.378 95.6117C166.431 90.5443 166.681 85.4912 167.128 80.4521" stroke="#B1B8FF" stroke-width="2"/>
<path d="M167.128 80.4524C182.561 82.2609 196.718 87.3939 209.601 95.8513C211.33 96.9843 216.256 101.224 218.83 101.431C222.069 101.686 224.708 97.7184 223.293 94.9098C222.871 94.0694 221.855 93.0446 220.245 91.8354C204.663 80.1545 187.107 73.1687 167.575 70.8779" stroke="#A2CBFF" stroke-width="2"/>
<path d="M167.575 70.8782C167.719 63.4314 168.666 55.5485 168.086 48.1602" stroke="#B1B8FF" stroke-width="2"/>
<path d="M75.543 138.463C77.2717 136.852 79.0749 137.203 80.7025 136.41C82.1759 135.698 87.2823 130.937 82.4366 130.985C82.1068 130.988 81.2185 131.327 79.7717 132.001C78.8355 132.437 78.5962 131.947 79.1228 131.139" stroke="#8A7D98" stroke-width="2"/>
<path d="M142.83 105.681C143.255 102.486 143.082 99.3053 142.309 96.1387" stroke="#78BBFE" stroke-width="2"/>
<path d="M84.601 119.691C82.3918 121.411 79.9574 122.688 77.2979 123.521" stroke="#F6DAD1" stroke-width="2"/>
<path d="M77.2986 123.521L74.623 117.154" stroke="#8D8BAD" stroke-width="2"/>
<path d="M140.676 80.9368C140.938 80.5041 141.312 80.1619 141.798 79.9102C141.87 79.8726 141.929 79.8153 141.967 79.7459C142.005 79.6765 142.02 79.5984 142.011 79.5219C141.692 77.0963 141.564 74.6584 141.628 72.208C141.629 72.1491 141.604 72.09 141.556 72.0406C141.509 71.9912 141.442 71.9546 141.367 71.9368C141.073 71.8694 140.974 71.6938 141.069 71.4102" stroke="#78BBFE" stroke-width="2"/>
<path d="M82.8465 126.974L81.4156 126.995C81.3456 126.995 81.2734 127.022 81.2075 127.072C81.1416 127.122 81.0847 127.193 81.0433 127.277L79.123 131.139" stroke="#94A3C7" stroke-width="2"/>
<path d="M79.1224 131.138C77.4096 130.468 76.8139 132.261 76.117 133.34C76.0239 133.489 75.8894 133.601 75.7341 133.66L69.7021 135.904" stroke="#F6DAD1" stroke-width="2"/>
<path d="M69.7029 135.904L69.5273 132.846" stroke="#B6D6FE" stroke-width="2"/>
<path d="M69.5267 132.846L69.415 127.947" stroke="#C0DCFE" stroke-width="2"/>
<path d="M167.575 70.8779C167.235 74.0659 167.086 77.2574 167.128 80.4524" stroke="#7794FF" stroke-width="2"/>
<path d="M166.378 95.6123L165.932 105.293" stroke="#7794FF" stroke-width="2"/>
<path d="M165.181 122.075L164.319 131.469" stroke="#7794FF" stroke-width="2"/>
<path d="M147.586 131.516L146.74 122.032" stroke="#84A4FF" stroke-width="2"/>
<path d="M145.99 105.186C146.075 102.023 145.93 98.874 145.554 95.7393" stroke="#7997FE" stroke-width="2"/>
<path d="M144.926 80.4522C145.001 77.2891 144.824 74.1419 144.395 71.0107" stroke="#7997FE" stroke-width="2"/>
<path d="M70.1921 141.489C65.5893 143.908 61.5627 145.459 58.1123 146.144C56.9208 146.381 55.7382 145.862 54.5645 144.585" stroke="#B3B3CE" stroke-width="2"/>
<path d="M54.5643 144.586C52.8409 141.483 51.4526 138.242 50.3994 134.862" stroke="#BDB7CC" stroke-width="2"/>
<path d="M57.8252 135.239L59.2029 139.463C59.3341 139.863 59.5114 139.913 59.7348 139.612C60.7348 138.261 61.9475 138.558 63.2295 138.229C65.467 137.654 67.6248 136.879 69.7029 135.904" stroke="#ACB1D0" stroke-width="2"/>
<path d="M66.6973 105.441C66.9172 106.92 66.8853 108.253 66.6016 109.441" stroke="#847EA0" stroke-width="2"/>
<path d="M65.5585 109.064C64.0763 108.468 62.5248 108.222 60.9043 108.324C60.7969 108.331 60.696 108.358 60.6113 108.404C60.5265 108.45 60.4607 108.512 60.4202 108.585C59.9805 109.355 59.7234 110.188 59.649 111.085C59.6409 111.182 59.6178 111.272 59.5816 111.347C59.5455 111.422 59.4974 111.48 59.4415 111.516C59.0745 111.75 58.3564 110.245 58.1756 109.989C58.1225 109.913 58.0581 109.85 57.9872 109.804C57.9164 109.758 57.8408 109.73 57.766 109.723C57.0479 109.676 57.016 114.08 56.9521 114.404" stroke="#847EA0" stroke-width="2"/>
<path d="M77.2985 123.521C77.795 124.578 77.2169 125.218 75.5645 125.442" stroke="#96B1DB" stroke-width="2"/>
<path d="M75.5638 125.442C74.5993 122.598 73.828 119.703 73.25 116.756" stroke="#2156A9" stroke-width="2"/>
<path d="M69.527 132.846C68.1051 132.991 66.6955 133.214 65.2983 133.516C62.8675 134.037 60.6228 134.106 58.2292 134.404C58.1418 134.415 58.0606 134.448 57.9955 134.498C57.9303 134.548 57.884 134.614 57.8621 134.686C57.8125 134.86 57.8001 135.044 57.8249 135.239" stroke="#77B3FD" stroke-width="2"/>
<path d="M57.8244 135.239C57.3812 134.314 57.1383 133.286 57.0957 132.154" stroke="#B7B7D0" stroke-width="2"/>
<path d="M57.096 132.155L56.7236 130.128" stroke="#578EDA" stroke-width="2"/>
<path d="M71.8299 126.995L69.415 127.947" stroke="#96B1DB" stroke-width="2"/>
<path d="M69.4154 127.947L69.1494 127.904" stroke="#578EDA" stroke-width="2"/>
<path d="M69.1493 127.905L68.6387 124.602" stroke="#4B85DB" stroke-width="2"/>
<path d="M68.6391 124.601C68.2596 122.147 66.9564 120.39 64.7295 119.33" stroke="#548AD9" stroke-width="2"/>
<path d="M75.5641 125.441L71.8301 126.995" stroke="#8AA4CD" stroke-width="2"/>
<path d="M71.8303 126.995C71.614 123.804 70.8711 120.731 69.6016 117.777" stroke="#2156A9" stroke-width="2"/>
<path d="M70.458 145.878C70.0431 145.974 69.6991 145.861 69.4261 145.538C69.3758 145.476 69.3107 145.431 69.2388 145.406C69.1669 145.381 69.0914 145.379 69.0218 145.4C62.7877 147.346 55.4101 147.586 49.0537 146.07" stroke="#83BDFC" stroke-width="2"/>
<path d="M57.0962 132.154L50.3994 134.862" stroke="#8D8BAD" stroke-width="2"/>
<path d="M50.3997 134.862L48.8252 135.373" stroke="#5D8ED6" stroke-width="2"/>
<path d="M54.5642 144.585L52.3142 142.606C52.2721 142.571 52.2077 142.539 52.1253 142.513C52.0429 142.486 51.9441 142.466 51.8355 142.452L49.0908 142.154" stroke="#84B6F8" stroke-width="2"/>
<path d="M69.1492 127.904C65.1279 129.216 60.986 129.957 56.7236 130.128" stroke="#75B0FE" stroke-width="2"/>
<path d="M56.7242 130.128L56.3359 128.894" stroke="#4B85DB" stroke-width="2"/>
<path d="M56.3352 128.894L55.5586 126.325" stroke="#4278CF" stroke-width="2"/>
<path d="M68.6384 124.602C64.3476 125.591 59.9877 126.165 55.5586 126.325" stroke="#71ADFD" stroke-width="2"/>
<path d="M55.559 126.325L54.8994 125.134" stroke="#4B7DCC" stroke-width="2"/>
<path d="M54.8994 125.134C54.5413 124.073 53.942 123.015 53.1016 121.958" stroke="#548AD9" stroke-width="2"/>
<path d="M70.857 150C69.6477 150.117 67.2151 150.511 63.5591 151.181C59.1123 152 54.1619 151.814 48.708 150.622" stroke="#83C3FE" stroke-width="2"/>
<path d="M56.3354 128.894L47.7344 131.282" stroke="#2555AB" stroke-width="2"/>
<path d="M54.8991 125.134C52.4629 126.637 49.8175 127.341 46.9629 127.245" stroke="#2555AB" stroke-width="2"/>
<path d="M58.1122 121.389C57.2931 121.963 56.6654 121.357 55.9792 121.346C54.965 121.325 54.0058 121.529 53.1016 121.958" stroke="#72A7EB" stroke-width="2"/>
<path d="M53.1013 121.957L52.1279 121.298" stroke="#4B7FC9" stroke-width="2"/>
<path d="M52.1278 121.299L49.8672 120.325" stroke="#4372BD" stroke-width="2"/>
<path d="M71.1543 151.713C69.938 153.082 68.2536 153.981 66.1011 154.41C59.9273 155.637 54.0284 155.622 48.4043 154.367" stroke="#86C6FD" stroke-width="2"/>
<path d="M52.1276 121.298C50.5425 122.199 48.8652 122.856 47.0957 123.271" stroke="#2555AB" stroke-width="2"/>
<path d="M72.1603 158.176C64.2064 159.97 56.1621 160.747 48.0273 160.506" stroke="#578BCE" stroke-width="2"/>
<path d="M68.8835 221.431L63.8516 221.144" stroke="#7E81AA" stroke-width="2"/>
<path d="M63.8518 221.144C63.1603 220.733 62.7703 219.968 62.6816 218.851C62.1852 212.642 61.9458 207.954 61.9635 204.788C62.0203 194.39 61.5433 184.023 60.5327 173.686C60.5265 173.622 60.5076 173.563 60.4782 173.516C60.4489 173.468 60.4105 173.435 60.3678 173.42C60.2348 173.373 60.1231 176.346 60.0859 176.697C58.632 189.913 57.0699 203.116 55.3997 216.303C55.1337 218.399 55.1072 220.048 53.9795 221.894" stroke="#8EA4CF" stroke-width="2"/>
<path d="M53.9789 221.894L49.0693 221.697" stroke="#7E81AA" stroke-width="2"/>
<path d="M68.8838 222.984L63.5859 223.006" stroke="#7E81AA" stroke-width="2"/>
<path d="M63.8519 221.144L63.5859 223.005" stroke="#F0DCDA" stroke-width="2"/>
<path d="M63.5859 223.006L63.2773 225.134" stroke="#8EA4CF" stroke-width="2"/>
<path d="M63.2767 225.134L54.3564 225.522" stroke="#EEF7FF" stroke-width="2"/>
<path d="M54.357 225.521L53.9688 224.069" stroke="#8EA4CF" stroke-width="2"/>
<path d="M53.9688 224.069L53.98 221.894" stroke="#F0DCDA" stroke-width="2"/>
<path d="M53.9688 224.07L48.8252 223.804" stroke="#7E81AA" stroke-width="2"/>
<path d="M71.5272 225.873C73.1477 227.685 74.9545 229.074 76.9474 230.038C77.474 230.293 78.5644 231.081 76.9474 231.214C74.0715 231.451 69.5414 231.355 63.357 230.926C63.2829 230.921 63.2138 230.888 63.1642 230.836C63.1146 230.783 63.0884 230.715 63.091 230.644L63.2772 225.134" stroke="#7C9CCF" stroke-width="2"/>
<path d="M54.3565 225.521C54.516 227.197 55.5639 230.915 53.0214 230.936C51.5178 230.951 49.6845 230.818 47.5214 230.537C47.4877 230.534 47.4551 230.523 47.4259 230.506C47.3966 230.489 47.3713 230.466 47.3517 230.438C47.3321 230.41 47.3186 230.379 47.3121 230.345C47.3056 230.312 47.3062 230.278 47.3139 230.245L48.298 225.942" stroke="#7C9CCF" stroke-width="2"/>
<path d="M242.394 76.272C241.089 80.5061 239.942 84.7827 238.952 89.1018C238.622 90.5344 239.153 91.2632 240.543 91.288C240.761 91.2907 240.975 91.2255 241.153 91.1014C241.332 90.9773 241.466 90.8007 241.537 90.5965L246.271 77.2348C246.306 77.1384 246.322 77.0416 246.316 76.9565C246.31 76.8715 246.284 76.8018 246.24 76.7561C245.385 75.8873 244.33 75.5291 243.075 75.6816C242.921 75.7005 242.774 75.7663 242.654 75.871C242.533 75.9758 242.443 76.115 242.394 76.272Z" stroke="#EEF7FF" stroke-width="2"/>
<path d="M66.9609 85.3878C67.0334 85.1578 67.0116 84.9083 66.9002 84.6944C66.7888 84.4804 66.597 84.3194 66.3669 84.2469L65.7176 84.0421C65.6036 84.0062 65.4838 83.9931 65.3648 84.0035C65.2458 84.0139 65.13 84.0476 65.024 84.1028C64.9181 84.1579 64.824 84.2334 64.7472 84.3249C64.6705 84.4164 64.6125 84.5222 64.5765 84.6361L61.8702 93.2196C61.7977 93.4496 61.8195 93.6991 61.9309 93.913C62.0423 94.127 62.2341 94.288 62.4642 94.3605L63.1135 94.5653C63.2274 94.6012 63.3473 94.6143 63.4663 94.6039C63.5853 94.5935 63.7011 94.5598 63.807 94.5046C63.913 94.4495 64.007 94.374 64.0838 94.2825C64.1606 94.191 64.2186 94.0852 64.2545 93.9713L66.9609 85.3878Z" stroke="#BFDFF6" stroke-width="2"/>
<path d="M47.2644 88.7161C47.1517 88.4194 46.9257 88.1796 46.6362 88.0495C46.3467 87.9194 46.0173 87.9096 45.7206 88.0223L45.5814 88.0752C45.4344 88.131 45.2999 88.2152 45.1856 88.323C45.0712 88.4308 44.9792 88.5601 44.9147 88.7034C44.8503 88.8468 44.8148 89.0014 44.8101 89.1585C44.8054 89.3156 44.8318 89.4721 44.8876 89.619L47.9286 97.6247C48.0414 97.9214 48.2673 98.1612 48.5569 98.2913C48.8464 98.4214 49.1757 98.4312 49.4724 98.3185L49.6117 98.2656C49.7586 98.2098 49.8931 98.1256 50.0075 98.0178C50.1219 97.91 50.2139 97.7808 50.2783 97.6374C50.3427 97.494 50.3783 97.3394 50.3829 97.1823C50.3876 97.0252 50.3613 96.8687 50.3055 96.7218L47.2644 88.7161Z" stroke="#BFDFF6" stroke-width="2"/>
<path d="M240.607 94.1335C240.607 93.6736 240.424 93.2325 240.099 92.9073C239.774 92.5821 239.333 92.3994 238.873 92.3994C238.413 92.3994 237.972 92.5821 237.647 92.9073C237.321 93.2325 237.139 93.6736 237.139 94.1335C237.139 94.5934 237.321 95.0344 237.647 95.3596C237.972 95.6848 238.413 95.8675 238.873 95.8675C239.333 95.8675 239.774 95.6848 240.099 95.3596C240.424 95.0344 240.607 94.5934 240.607 94.1335Z" stroke="#EEF7FF" stroke-width="2"/>
<path d="M63.5746 96.6652C63.5746 96.2731 63.4188 95.8969 63.1415 95.6196C62.8642 95.3423 62.4881 95.1865 62.0959 95.1865C61.7037 95.1865 61.3276 95.3423 61.0503 95.6196C60.773 95.8969 60.6172 96.2731 60.6172 96.6652C60.6172 97.0574 60.773 97.4335 61.0503 97.7109C61.3276 97.9882 61.7037 98.144 62.0959 98.144C62.4881 98.144 62.8642 97.9882 63.1415 97.7109C63.4188 97.4335 63.5746 97.0574 63.5746 96.6652Z" stroke="#B4CEED" stroke-width="2"/>
<path d="M51.8565 100.383C51.8565 99.9869 51.6991 99.6068 51.4188 99.3265C51.1385 99.0461 50.7583 98.8887 50.3619 98.8887C49.9655 98.8887 49.5853 99.0461 49.305 99.3265C49.0247 99.6068 48.8672 99.9869 48.8672 100.383C48.8672 100.78 49.0247 101.16 49.305 101.44C49.5853 101.721 49.9655 101.878 50.3619 101.878C50.7583 101.878 51.1385 101.721 51.4188 101.44C51.6991 101.16 51.8565 100.78 51.8565 100.383Z" stroke="#B4CEED" stroke-width="2"/>
<path d="M164.533 181.724L163.309 181.649C163.173 181.641 163.036 181.648 162.908 181.67C162.78 181.693 162.663 181.731 162.564 181.781C162.465 181.832 162.387 181.894 162.334 181.963C162.281 182.033 162.254 182.109 162.256 182.187L162.346 186.99C162.361 187.777 162.79 188.061 163.634 187.841C165.639 187.309 166.181 190.431 165.926 191.74C165.923 191.765 165.837 191.894 165.671 192.128L165.001 193.07C164.942 193.155 164.913 193.255 164.918 193.354C164.923 193.453 164.961 193.544 165.027 193.612L168.548 197.149C168.575 197.175 168.609 197.192 168.647 197.199C168.686 197.207 168.729 197.205 168.774 197.195C168.818 197.184 168.864 197.164 168.907 197.136C168.951 197.108 168.992 197.073 169.027 197.032C170.222 195.671 171.57 195.414 173.07 196.261C174.272 196.937 174.341 197.921 174.591 199.165C174.609 199.251 174.647 199.328 174.697 199.384C174.748 199.439 174.808 199.469 174.868 199.469L179.66 199.479C179.743 199.479 179.826 199.46 179.901 199.424C179.975 199.387 180.041 199.334 180.092 199.269C180.144 199.203 180.179 199.127 180.197 199.045C180.214 198.964 180.212 198.879 180.192 198.798C179.65 196.596 181.969 196.001 183.533 195.527C183.626 195.499 183.722 195.492 183.812 195.506C183.902 195.52 183.983 195.554 184.048 195.607L185.453 196.745C185.558 196.83 185.691 196.87 185.825 196.857C185.958 196.844 186.081 196.779 186.165 196.676C187.126 195.502 188.171 194.415 189.298 193.415C189.699 193.061 189.375 192.47 188.325 191.644C188.138 191.496 188.003 191.295 187.943 191.073C187.884 190.852 187.902 190.624 187.995 190.426L189.16 187.99C189.202 187.901 189.265 187.822 189.345 187.756C189.425 187.691 189.519 187.642 189.623 187.612L191.761 187.001C191.827 186.981 191.885 186.928 191.926 186.851C191.967 186.773 191.99 186.674 191.99 186.57L192.027 182.314C192.029 182.19 192.013 182.074 191.981 181.983C191.949 181.892 191.904 181.831 191.852 181.809C191.309 181.575 190.735 181.458 190.128 181.458C190.042 181.458 189.955 181.437 189.874 181.398C189.793 181.358 189.72 181.301 189.66 181.229C188.979 180.41 188.509 179.492 188.251 178.474C188.216 178.327 188.247 178.145 188.336 177.963L189.277 176.102C189.316 176.023 189.329 175.932 189.315 175.837C189.3 175.742 189.26 175.647 189.197 175.564C188.29 174.348 187.251 173.259 186.08 172.298C185.907 172.155 185.688 172.082 185.469 172.093C185.25 172.104 185.048 172.198 184.905 172.357C183.706 173.697 182.274 173.742 180.607 172.49C180.259 172.231 180.061 171.447 180.011 170.139C180.007 170.038 179.968 169.943 179.902 169.873C179.836 169.803 179.747 169.763 179.655 169.761L174.868 169.697C174.766 169.696 174.665 169.721 174.576 169.771C174.488 169.82 174.414 169.892 174.362 169.979C174.05 170.501 173.907 171.066 173.931 171.676C173.938 171.838 173.901 172.001 173.825 172.151C173.749 172.3 173.636 172.431 173.495 172.532C172.066 173.557 170.634 173.619 169.197 172.719C168.962 172.572 168.692 172.501 168.43 172.517C168.169 172.533 167.931 172.636 167.756 172.809L164.798 175.708C164.71 175.797 164.642 175.895 164.604 175.988C164.567 176.081 164.562 176.164 164.591 176.224C164.839 176.742 165.208 177.174 165.697 177.522C165.757 177.564 165.804 177.625 165.833 177.699C165.862 177.773 165.872 177.857 165.862 177.942C165.735 179.162 165.398 180.307 164.852 181.378C164.801 181.48 164.742 181.569 164.684 181.631C164.627 181.694 164.573 181.726 164.533 181.724Z" stroke="#EEF7FF" stroke-width="2"/>
<path d="M228.57 203.591C229.394 202.203 230.596 199.235 229.091 197.948C227.128 196.272 225.586 199.16 225.245 201.065" stroke="#8AA4CD" stroke-width="2"/>
<path d="M225.245 201.064C224.217 200.809 223.3 201.031 222.495 201.729" stroke="#C1C1F6" stroke-width="2"/>
<path d="M222.495 201.729L221.559 199.581C221.529 199.512 221.517 199.433 221.525 199.349C221.532 199.265 221.558 199.179 221.601 199.096C222.745 196.857 224.872 191.586 223.952 189.166C223.505 187.995 222.688 187.625 221.5 188.054C220.592 188.38 220.094 189.024 220.005 189.985C219.764 192.517 219.872 194.838 220.33 196.948C220.362 197.093 220.341 197.174 220.266 197.192C220.229 197.202 220.184 197.192 220.136 197.162C220.089 197.132 220.043 197.085 220.005 197.027L217.138 192.831C217.08 192.744 217.039 192.651 217.018 192.557C216.997 192.463 216.996 192.372 217.016 192.288C217.697 189.455 217.952 186.586 217.782 183.682C217.722 182.699 217.419 181.981 216.872 181.527C216.039 180.839 215.156 180.795 214.223 181.394C213.631 181.777 213.411 182.616 213.564 183.91C213.841 186.279 214.521 188.527 215.606 190.655C215.727 190.896 215.677 190.935 215.458 190.772L210.867 187.378C210.715 187.265 210.606 187.135 210.543 186.99C209.362 184.384 207.186 180.229 204.351 179.394C204.182 179.343 204.004 179.348 203.846 179.41C198.16 181.644 208.654 187.522 210.341 188.378C212.069 189.256 213.298 190.341 214.649 191.575C214.672 191.596 214.691 191.62 214.704 191.647C214.718 191.674 214.726 191.702 214.728 191.73C214.73 191.758 214.726 191.785 214.716 191.809C214.706 191.832 214.69 191.853 214.67 191.868C214.484 191.995 214.362 191.783 214.239 191.724C212.218 190.729 204.676 187.926 204.575 191.671C204.468 195.533 213.697 193.676 215.718 193.213C215.812 193.193 215.904 193.189 215.982 193.202C216.06 193.215 216.122 193.245 216.16 193.288C217.589 194.933 218.816 196.719 219.841 198.644C219.958 198.868 219.901 198.932 219.67 198.836C216.92 197.698 212.654 195.948 210.005 197.038C209.846 197.104 209.71 197.217 209.617 197.362C206.096 202.836 218.564 200.437 220.223 200.006C220.305 199.986 220.389 199.991 220.46 200.022C220.532 200.052 220.586 200.105 220.612 200.171L221.787 203.192" stroke="#8AA4CD" stroke-width="2"/>
<path d="M221.788 203.191C221.171 204.394 220.868 205.672 220.878 207.027" stroke="#C1C1F6" stroke-width="2"/>
<path d="M220.878 207.027C219.352 206.437 211.325 204.16 212.399 208.203C212.669 209.21 213.323 209.758 214.362 209.846C216.486 210.031 218.614 209.992 220.745 209.729" stroke="#8AA4CD" stroke-width="2"/>
<path d="M220.745 209.729L221.144 214.474" stroke="#C2C0FF" stroke-width="2"/>
<path d="M221.144 214.474C219.576 213.843 217.927 213.474 216.197 213.368C216.021 213.357 215.849 213.404 215.707 213.501C212.761 215.506 215 217.325 217.277 217.676C218.993 217.939 220.725 218.038 222.473 217.974" stroke="#8AA4CD" stroke-width="2"/>
<path d="M222.474 217.974L224.846 223.803" stroke="#C1C1F6" stroke-width="2"/>
<path d="M224.846 223.803C222.881 222.58 220.786 221.727 218.559 221.245C216.053 220.702 213.857 222.25 216.357 224.756" stroke="#8AA4CD" stroke-width="2"/>
<path d="M216.357 224.756C216.36 225.483 216.107 225.852 215.596 225.862C212.602 225.937 198.309 226.607 196.687 228.825C195.862 229.958 197.261 230.559 198.197 230.798C204.105 232.334 210.114 233.054 216.224 232.958" stroke="#EEF7FF" stroke-width="2"/>
<path d="M216.224 232.958C218.454 233.277 220.695 233.431 222.947 233.421C224.936 233.41 227.718 233.777 230.112 233.362" stroke="#8AA4CD" stroke-width="2"/>
<path d="M230.112 233.362C231.715 233.61 233.247 233.608 234.708 233.356" stroke="#C2C0FF" stroke-width="2"/>
<path d="M234.708 233.357C238.586 233.41 264.139 232.851 263.99 229.149C263.988 229.075 263.962 229 263.914 228.935C263.865 228.87 263.798 228.817 263.719 228.782C262.031 228.041 260.736 227.587 259.836 227.421C256.573 226.821 251.816 226.211 245.564 225.591" stroke="#EEF7FF" stroke-width="2"/>
<path d="M245.564 225.59C249.17 223.399 267.224 213.596 262.74 207.697C261.42 205.957 257.521 206.904 254.787 207.293C251.633 207.739 248.367 206.138 248.654 202.553C248.668 202.38 248.735 202.217 248.846 202.085C250.271 200.33 254.006 199.287 256.112 198.346C260.559 196.362 258.075 191.782 254.085 191.931C252.642 191.988 251.3 191.83 250.059 191.457C249.346 191.245 248.972 190.768 248.936 190.027C248.761 186.378 251.181 183.112 252.787 179.84C253.654 178.08 253.67 176.122 251.713 175.293C246.644 173.149 242.319 184.229 240.979 187.644C240.42 189.069 239.447 190.425 238.181 188.298C237.447 187.064 236.419 185.901 235.096 184.808C232.819 182.925 230.468 184.17 230.208 187C230.108 188.089 230.186 189.144 230.442 190.165C231.452 194.234 232.862 198.372 232.17 202.08C231.695 204.644 230.495 205.147 228.569 203.59" stroke="#C2C0FF" stroke-width="2"/>
<path d="M245.564 225.591C241.54 227.545 237.921 230.133 234.708 233.357" stroke="#B1B8FF" stroke-width="2"/>
<path d="M230.112 233.362C231.627 232.419 233.166 231.501 234.729 230.607C236.038 229.857 238.554 226.846 236.107 225.649C233.416 224.336 229.501 230.527 228.533 232.368C228.368 232.681 227.841 232.953 227.825 232.442C227.754 230.201 227.699 227.947 227.66 225.681C227.659 225.604 227.681 225.528 227.723 225.463C227.766 225.398 227.827 225.346 227.9 225.314C230.607 224.107 238.038 221.006 236.017 217.554" stroke="#4D65CD" stroke-width="2"/>
<path d="M236.017 217.554C236.038 217.167 236.187 216.853 236.463 216.612C236.519 216.564 236.561 216.498 236.582 216.423C236.604 216.348 236.605 216.266 236.586 216.187C236.32 215.087 236.625 214.16 237.501 213.405C237.574 213.342 237.653 213.294 237.732 213.263C237.81 213.232 237.887 213.219 237.958 213.224C238.102 213.229 245.644 213.506 245.575 212.484C245.573 212.449 245.562 212.414 245.542 212.382C245.523 212.35 245.495 212.322 245.461 212.299C245.427 212.276 245.387 212.258 245.343 212.247C245.3 212.236 245.254 212.232 245.208 212.234L238.559 212.66C238.453 212.666 238.347 212.649 238.249 212.61C238.151 212.572 238.064 212.512 237.996 212.437C237.929 212.362 237.882 212.274 237.861 212.18C237.839 212.087 237.843 211.99 237.873 211.899L242.511 197.702C242.763 196.94 243.268 196.474 244.027 196.304L247.612 195.495C247.649 195.487 247.682 195.467 247.707 195.437C247.732 195.407 247.747 195.37 247.751 195.33C247.777 195.064 244.745 195.314 244.724 195.32C243.749 195.359 243.446 194.913 243.814 193.984L244.756 191.601C244.786 191.525 244.79 191.442 244.768 191.365C244.746 191.288 244.698 191.223 244.634 191.181C244.194 190.898 243.876 191.077 243.681 191.718C242.579 195.385 241.302 198.635 239.852 201.468C239.77 201.628 239.681 201.632 239.586 201.479C239.213 200.894 237.048 196.676 236.868 196.612C236.697 196.552 236.637 196.644 236.687 196.889C237.137 199.048 237.931 201.069 239.07 202.952C239.108 203.014 239.131 203.091 239.136 203.178C239.142 203.266 239.13 203.361 239.102 203.458C238.017 207.33 236.635 211.087 234.958 214.729C234.872 214.911 234.848 215.1 234.889 215.261C235.034 215.843 234.974 216.378 234.708 216.867" stroke="#7F7BFD" stroke-width="2"/>
<path d="M234.708 216.867C232.064 217.091 229.016 221.644 227.889 223.729C227.651 224.169 227.5 224.137 227.437 223.633L226.745 218.086C226.724 217.916 226.745 217.74 226.808 217.574C226.871 217.408 226.973 217.255 227.107 217.128C229.362 214.995 233.766 210.708 232.921 208.117C232.511 206.857 231.086 206.41 230.027 207.282C228.128 208.846 227.192 212.639 226.703 214.99C226.686 215.069 226.655 215.14 226.613 215.194C226.572 215.247 226.524 215.28 226.474 215.288C226.373 215.298 225.096 209.655 224.926 209.027C224.904 208.951 224.901 208.87 224.917 208.789C224.933 208.709 224.967 208.632 225.016 208.564L228.57 203.591" stroke="#4D65CD" stroke-width="2"/>
<path d="M222.495 201.729L224.086 206.176C224.249 206.627 224.367 206.609 224.442 206.123L225.245 201.064" stroke="#4C66C4" stroke-width="2"/>
<path d="M234.708 216.867C235.254 216.878 235.69 217.107 236.017 217.553" stroke="#475FCB" stroke-width="2"/>
<path d="M216.224 232.957C215.245 231.489 215.367 230.452 216.591 229.846C217.495 229.399 218.424 229.342 219.378 229.676C221.623 230.463 223.832 231.495 226.006 232.771" stroke="#799CCD" stroke-width="2"/>
<path d="M226.005 232.772L226.739 232.915C226.772 232.921 226.805 232.919 226.837 232.909C226.869 232.899 226.899 232.883 226.923 232.86C226.948 232.837 226.968 232.808 226.981 232.777C226.995 232.745 227.001 232.71 227 232.676C226.984 231.958 227.33 224.404 225.511 225.798" stroke="#3F73BB" stroke-width="2"/>
<path d="M225.511 225.798C222.376 226.071 219.325 225.724 216.356 224.756" stroke="#799CCD" stroke-width="2"/>
<path d="M224.846 223.804L226.202 224.591C226.394 224.701 226.481 224.658 226.463 224.463L225.825 217.921C225.82 217.876 225.808 217.832 225.788 217.792C225.768 217.752 225.74 217.717 225.708 217.688C225.675 217.659 225.638 217.638 225.597 217.625C225.557 217.612 225.515 217.607 225.474 217.612L222.474 217.974" stroke="#4C66C4" stroke-width="2"/>
<path d="M221.144 214.474L224.862 216.416C225.309 216.65 225.504 216.54 225.447 216.086C225.149 213.799 224.672 211.554 224.016 209.352C223.992 209.269 223.939 209.199 223.867 209.155C223.795 209.11 223.71 209.095 223.628 209.113L220.745 209.73" stroke="#4D65CD" stroke-width="2"/>
<path d="M220.878 207.027L223.181 208.112C223.44 208.232 223.546 208.154 223.5 207.878C223.224 206.144 222.653 204.581 221.787 203.191" stroke="#4C66C4" stroke-width="2"/>
<path d="M225.511 225.798C225.95 228.078 226.115 230.402 226.005 232.771" stroke="#A3C6ED" stroke-width="2"/>
<path d="M122.932 46.5699C123.788 47.2667 123.442 44.6231 123.501 44.2348C123.785 42.4121 123.884 40.5841 123.799 38.7508C123.714 36.788 122.033 36.1816 122.091 38.4582C122.162 41.1461 122.412 43.7969 122.841 46.4103C122.852 46.4721 122.884 46.5286 122.932 46.5699Z" stroke="#EEF7FF" stroke-width="2"/>
<path d="M112.523 167.805C112.523 167.687 112.5 167.57 112.455 167.461C112.41 167.352 112.344 167.253 112.261 167.169C112.178 167.086 112.079 167.019 111.97 166.974C111.861 166.929 111.744 166.905 111.626 166.905L111.253 166.904C111.135 166.904 111.019 166.927 110.909 166.972C110.8 167.017 110.701 167.083 110.617 167.167C110.534 167.25 110.467 167.349 110.422 167.458C110.377 167.567 110.353 167.684 110.353 167.802L110.339 175.887C110.339 176.005 110.362 176.122 110.407 176.231C110.452 176.34 110.518 176.439 110.601 176.523C110.684 176.607 110.783 176.673 110.892 176.718C111.001 176.764 111.118 176.787 111.236 176.787L111.609 176.788C111.727 176.788 111.844 176.765 111.953 176.72C112.062 176.675 112.161 176.609 112.245 176.526C112.328 176.442 112.395 176.343 112.44 176.234C112.485 176.125 112.509 176.009 112.509 175.891L112.523 167.805Z" stroke="#C2C0FF" stroke-width="2"/>
<path d="M112.463 179.037C112.463 178.903 112.437 178.769 112.385 178.644C112.334 178.52 112.258 178.407 112.163 178.311C112.067 178.216 111.954 178.14 111.83 178.089C111.705 178.037 111.572 178.011 111.437 178.011C111.164 178.011 110.903 178.119 110.711 178.311C110.518 178.504 110.41 178.765 110.41 179.037C110.41 179.31 110.518 179.571 110.711 179.763C110.903 179.956 111.164 180.064 111.437 180.064C111.572 180.064 111.705 180.037 111.83 179.986C111.954 179.934 112.067 179.859 112.163 179.763C112.258 179.668 112.334 179.555 112.385 179.43C112.437 179.306 112.463 179.172 112.463 179.037Z" stroke="#C2C0FF" stroke-width="2"/>
<path d="M183.921 184.575C183.921 182.772 183.205 181.043 181.93 179.768C180.655 178.494 178.926 177.777 177.123 177.777C175.32 177.777 173.591 178.494 172.316 179.768C171.041 181.043 170.325 182.772 170.325 184.575C170.325 186.378 171.041 188.107 172.316 189.382C173.591 190.657 175.32 191.373 177.123 191.373C178.926 191.373 180.655 190.657 181.93 189.382C183.205 188.107 183.921 186.378 183.921 184.575Z" stroke="#EEF7FF" stroke-width="2"/>
<path d="M181.5 184.58C181.5 183.405 181.034 182.278 180.203 181.447C179.372 180.616 178.245 180.149 177.07 180.149C175.894 180.149 174.767 180.616 173.936 181.447C173.105 182.278 172.639 183.405 172.639 184.58C172.639 185.755 173.105 186.882 173.936 187.713C174.767 188.544 175.894 189.011 177.07 189.011C178.245 189.011 179.372 188.544 180.203 187.713C181.034 186.882 181.5 185.755 181.5 184.58Z" stroke="#EEF7FF" stroke-width="2"/>
<path d="M112.718 48.7823L122.643 31.4631C122.676 31.4056 122.723 31.3577 122.78 31.3243C122.837 31.291 122.902 31.2734 122.968 31.2734C123.034 31.2734 123.099 31.291 123.156 31.3243C123.213 31.3577 123.26 31.4056 123.292 31.4631L133.218 48.7823C133.249 48.8385 133.265 48.9018 133.265 48.9662C133.264 49.0305 133.247 49.0935 133.215 49.1493C133.183 49.205 133.137 49.2514 133.081 49.284C133.026 49.3167 132.963 49.3344 132.899 49.3355H113.037C112.973 49.3344 112.91 49.3167 112.854 49.284C112.799 49.2514 112.753 49.205 112.721 49.1493C112.689 49.0935 112.671 49.0305 112.671 48.9662C112.67 48.9018 112.687 48.8385 112.718 48.7823ZM122.931 46.5695C123.787 47.2663 123.441 44.6227 123.5 44.2344C123.783 42.4117 123.883 40.5837 123.798 38.7504C123.712 36.7876 122.032 36.1812 122.09 38.4578C122.161 41.1458 122.411 43.7965 122.84 46.4099C122.85 46.4717 122.882 46.5282 122.931 46.5695Z" fill="#FEBC33"/>
<path d="M122.931 46.5689C122.883 46.5276 122.851 46.4711 122.84 46.4094C122.411 43.7959 122.161 41.1452 122.09 38.4572C122.032 36.1806 123.713 36.787 123.798 38.7498C123.883 40.5831 123.784 42.4111 123.5 44.2338C123.441 44.6221 123.787 47.2657 122.931 46.5689Z" fill="white"/>
<path d="M168.506 153.724C162.612 137.346 138.825 144.867 143.596 161.835C140.823 164.222 137.066 166.882 132.325 169.814C128.25 172.332 124.504 174.142 121.085 175.245L112.123 159.814C111.647 158.999 111.172 159 110.697 159.82L101.41 175.857C92.8354 173.878 85.9329 169.609 80.7024 163.048C75.7769 156.873 76.0801 148.532 78.4311 141.389C78.6599 140.681 78.5481 139.788 78.8567 138.984L81.9152 139.101C82.011 139.106 82.1077 139.079 82.193 139.023C82.2783 138.967 82.3483 138.885 82.3939 138.788L87.7024 127.346C87.7154 127.319 87.7209 127.289 87.7184 127.26C87.716 127.23 87.7056 127.201 87.6882 127.175C87.6708 127.149 87.647 127.127 87.6189 127.112C87.5907 127.096 87.5591 127.087 87.5269 127.085L82.846 126.974C83.8921 124.662 84.4772 122.234 84.6013 119.692C87.1794 117.844 87.4808 115.72 85.5056 113.32L85.7716 113.107C85.8217 113.066 85.8565 112.999 85.8717 112.916C85.8868 112.833 85.8816 112.736 85.8567 112.639C83.7077 104.351 79.6545 95.5004 77.8194 86.027C76.284 78.1369 78.4613 71.5926 84.3513 66.394C89.2875 62.0323 95.1368 59.9117 101.899 60.0323C106.202 60.1121 111.633 61.4312 116.394 62.3355C118.39 62.7114 121.749 62.9029 126.468 62.91C130.699 62.917 136.541 62.2486 143.995 60.9046L144.394 71.011L141.069 71.41C123.027 73.9348 106.736 80.5695 92.1971 91.3142C88.9099 93.7451 85.995 96.91 90.0269 100.447C92.0588 102.234 94.4896 101.57 96.5162 100.016C109.608 90.0057 124.328 83.6458 140.676 80.9366L144.926 80.4525L145.553 95.7397L142.309 96.1387C128.621 98.4578 116.334 103.827 105.447 112.245C104.511 112.968 103.88 113.648 103.553 114.282C101.697 117.894 105.027 122.197 108.963 120.99C109.64 120.784 110.681 120.151 112.085 119.091C121.227 112.215 131.475 107.745 142.83 105.681L145.99 105.187L146.74 122.032C137.809 123.559 130.165 126.857 122.569 132.272C120.782 133.543 119.075 134.623 118.793 136.878C118.266 141.101 123.117 143.82 126.436 141.208C132.929 136.101 139.979 132.871 147.585 131.516C151.245 139 160.788 139.218 164.319 131.468C171.993 132.961 178.883 136.055 184.99 140.75C190.341 144.867 195.915 138.474 191.809 134.187C191.497 133.86 190.412 133.036 188.553 131.713C181.55 126.724 173.759 123.511 165.181 122.075L165.931 105.293C178.426 106.671 190.415 111.968 200.389 119.495C201.499 120.335 202.401 120.839 203.096 121.006C207.697 122.112 210.612 116.575 207.522 113.197C207.199 112.843 206.165 112.034 204.42 110.772C193.08 102.555 180.399 97.5022 166.378 95.6121C166.431 90.5447 166.681 85.4915 167.128 80.4525C182.561 82.261 196.718 87.394 209.601 95.8514C211.33 96.9844 216.256 101.224 218.83 101.431C222.069 101.687 224.708 97.7185 223.293 94.91C222.871 94.0695 221.855 93.0447 220.245 91.8355C204.663 80.1546 187.107 73.1688 167.575 70.878C167.718 63.4312 168.665 55.5483 168.085 48.16C177.33 41.7717 189.256 38.8142 200.165 37.9631C218.702 36.5217 229.08 45.5802 229.681 64.3089C229.855 69.6883 230.027 75.0678 230.197 80.4472C230.605 93.4295 234.247 105.211 241.123 115.793C245.745 122.91 250.123 129.304 247.713 137.867C242.862 155.091 221.064 157.601 206.569 156.25C193.851 155.07 181.309 153.559 168.506 153.724Z" fill="#DCEFFF"/>
<path d="M168.085 48.1592C168.664 55.5475 167.718 63.4304 167.574 70.8772C167.234 74.0652 167.085 77.2567 167.127 80.4517C166.68 85.4907 166.43 90.5439 166.377 95.6113L165.93 105.292L165.18 122.074L164.319 131.468C160.787 139.218 151.244 139 147.585 131.516L146.739 122.031L145.989 105.186C146.074 102.023 145.929 98.8737 145.553 95.739L144.925 80.4517C145 77.2886 144.822 74.1414 144.393 71.0102L143.994 60.9038C143.771 56.4464 142.984 50.4943 144.228 46.6113C148.095 34.5581 165.143 35.9038 168.085 48.1592Z" fill="#FEBC33"/>
<path d="M167.574 70.8779C187.106 73.1687 204.663 80.1545 220.244 91.8354C221.854 93.0446 222.87 94.0694 223.292 94.9098C224.707 97.7184 222.069 101.686 218.829 101.431C216.255 101.224 211.329 96.9843 209.601 95.8513C196.718 87.3939 182.56 82.2609 167.127 80.4524C167.085 77.2574 167.234 74.0659 167.574 70.8779Z" fill="#68A7FF"/>
<path d="M144.394 71.0107C144.823 74.1419 145 77.2891 144.926 80.4522L140.676 80.9363C140.938 80.5037 141.312 80.1614 141.798 79.9097C141.87 79.8721 141.929 79.8148 141.967 79.7454C142.005 79.676 142.02 79.5979 142.011 79.5214C141.692 77.0958 141.564 74.6579 141.628 72.2076C141.629 72.1487 141.604 72.0896 141.556 72.0402C141.509 71.9908 141.442 71.9541 141.367 71.9363C141.073 71.8689 140.974 71.6934 141.069 71.4097L144.394 71.0107Z" fill="#6CADFD"/>
<path d="M141.07 71.4092C140.974 71.6929 141.073 71.8684 141.367 71.9358C141.442 71.9536 141.509 71.9903 141.556 72.0397C141.604 72.0891 141.629 72.1482 141.628 72.2071C141.564 74.6574 141.692 77.0953 142.011 79.5209C142.02 79.5974 142.005 79.6755 141.967 79.7449C141.929 79.8143 141.87 79.8716 141.798 79.9092C141.312 80.161 140.938 80.5032 140.676 80.9358C124.328 83.645 109.609 90.0049 96.5164 100.016C94.4898 101.569 92.0589 102.234 90.027 100.446C85.9951 96.9092 88.91 93.7443 92.1972 91.3134C106.736 80.5688 123.027 73.934 141.07 71.4092Z" fill="#83C8FF"/>
<path d="M242.394 76.2711C242.443 76.114 242.533 75.9748 242.654 75.8701C242.774 75.7653 242.921 75.6995 243.075 75.6806C244.33 75.5282 245.385 75.8863 246.24 76.7551C246.284 76.8008 246.31 76.8705 246.316 76.9556C246.322 77.0406 246.306 77.1374 246.271 77.2338L241.537 90.5955C241.466 90.7997 241.332 90.9763 241.153 91.1004C240.975 91.2245 240.761 91.2898 240.543 91.287C239.153 91.2622 238.622 90.5335 238.952 89.1008C239.942 84.7817 241.089 80.5051 242.394 76.2711Z" fill="#DCEFFF"/>
<path d="M66.3664 84.2468L65.7171 84.0421C65.238 83.891 64.7272 84.1569 64.5761 84.636L61.8697 93.2195C61.7187 93.6986 61.9846 94.2094 62.4637 94.3605L63.113 94.5652C63.5921 94.7163 64.103 94.4503 64.254 93.9712L66.9604 85.3878C67.1114 84.9087 66.8455 84.3979 66.3664 84.2468Z" fill="#FEBC33"/>
<path d="M45.72 88.0221L45.5807 88.075C44.9628 88.3097 44.6522 89.0009 44.8869 89.6188L47.928 97.6245C48.1627 98.2424 48.8539 98.553 49.4718 98.3183L49.611 98.2654C50.2289 98.0307 50.5395 97.3395 50.3048 96.7216L47.2638 88.7159C47.029 88.098 46.3379 87.7874 45.72 88.0221Z" fill="#FEBC33"/>
<path d="M238.873 95.8675C239.83 95.8675 240.607 95.0911 240.607 94.1335C240.607 93.1758 239.83 92.3994 238.873 92.3994C237.915 92.3994 237.139 93.1758 237.139 94.1335C237.139 95.0911 237.915 95.8675 238.873 95.8675Z" fill="#DCEFFF"/>
<path d="M62.0959 98.144C62.9126 98.144 63.5746 97.4819 63.5746 96.6652C63.5746 95.8486 62.9126 95.1865 62.0959 95.1865C61.2792 95.1865 60.6172 95.8486 60.6172 96.6652C60.6172 97.4819 61.2792 98.144 62.0959 98.144Z" fill="#FEBC33"/>
<path d="M166.377 95.6113C180.399 97.5014 193.08 102.555 204.42 110.771C206.165 112.033 207.198 112.842 207.521 113.196C210.612 116.574 207.697 122.111 203.096 121.005C202.401 120.838 201.498 120.335 200.388 119.494C190.415 111.968 178.425 106.67 165.931 105.292L166.377 95.6113Z" fill="#68A7FF"/>
<path d="M145.553 95.7393C145.929 98.874 146.075 102.023 145.989 105.186L142.83 105.681C143.255 102.486 143.082 99.3049 142.309 96.1382L145.553 95.7393Z" fill="#6CADFD"/>
<path d="M142.308 96.1387C143.081 99.3053 143.255 102.486 142.829 105.681C131.475 107.745 121.227 112.215 112.085 119.091C110.68 120.151 109.64 120.784 108.962 120.99C105.026 122.197 101.696 117.894 103.553 114.282C103.879 113.648 104.51 112.968 105.446 112.245C116.333 103.827 128.62 98.4578 142.308 96.1387Z" fill="#83C8FF"/>
<path d="M50.3619 101.878C51.1874 101.878 51.8565 101.209 51.8565 100.383C51.8565 99.5579 51.1874 98.8887 50.3619 98.8887C49.5364 98.8887 48.8672 99.5579 48.8672 100.383C48.8672 101.209 49.5364 101.878 50.3619 101.878Z" fill="#FEBC33"/>
<path d="M66.697 105.441C66.9168 106.92 66.8849 108.253 66.6012 109.441L65.5587 109.063C64.0764 108.468 62.525 108.221 60.9044 108.324C60.7971 108.331 60.6962 108.358 60.6114 108.404C60.5267 108.449 60.4609 108.512 60.4204 108.585C59.9807 109.354 59.7236 110.188 59.6491 111.085C59.641 111.182 59.6179 111.272 59.5818 111.347C59.5456 111.422 59.4975 111.48 59.4417 111.516C59.0746 111.75 58.3566 110.244 58.1757 109.989C58.1226 109.913 58.0583 109.849 57.9874 109.803C57.9165 109.757 57.8409 109.73 57.7661 109.723C57.048 109.675 57.0161 114.079 56.9523 114.404C53.0906 108.218 55.7023 101.904 63.9683 104.074C65.025 104.351 65.9346 104.806 66.697 105.441Z" fill="#1C489E"/>
<path d="M85.5048 113.319C87.48 115.72 87.1786 117.844 84.6006 119.691C82.3914 121.411 79.957 122.688 77.2974 123.521L74.6219 117.154L78.3506 115.83C79.0456 115.585 79.0775 115.314 78.4463 115.016L66.6006 109.441C66.8843 108.253 66.9162 106.92 66.6963 105.441C69.246 106.878 71.1378 107.801 72.3719 108.213C77.4516 109.899 82.8399 111.324 85.5048 113.319Z" fill="#ECB4A2"/>
<path d="M65.5589 109.064C65.5801 111.496 64.9365 113.73 63.628 115.766C63.5456 115.896 63.4013 115.997 63.2237 116.048C61.394 116.569 63.2876 119.069 60.7929 119.787C60.7289 119.806 60.6555 119.809 60.577 119.797C60.4985 119.785 60.4164 119.759 60.3354 119.718L56.878 117.989C56.7559 117.928 56.6619 117.822 56.6146 117.692C56.5672 117.562 56.5701 117.417 56.6227 117.287C57.0163 116.319 57.1262 115.358 56.9525 114.404C57.0163 114.08 57.0482 109.676 57.7663 109.723C57.8411 109.73 57.9167 109.758 57.9876 109.804C58.0584 109.85 58.1228 109.913 58.1759 109.989C58.3567 110.245 59.0748 111.75 59.4418 111.516C59.4977 111.48 59.5458 111.422 59.5819 111.347C59.6181 111.272 59.6412 111.182 59.6493 111.085C59.7237 110.188 59.9808 109.355 60.4206 108.585C60.4611 108.512 60.5268 108.45 60.6116 108.404C60.6964 108.358 60.7973 108.331 60.9046 108.324C62.5252 108.222 64.0766 108.468 65.5589 109.064Z" fill="#ECB4A2"/>
<path d="M74.6223 117.155L77.2979 123.522C77.7943 124.578 77.2163 125.218 75.5638 125.442C74.5993 122.598 73.828 119.703 73.25 116.756C73.8457 116.337 74.3032 116.47 74.6223 117.155Z" fill="#2D62B7"/>
<path d="M73.2495 116.755C73.8275 119.702 74.5988 122.597 75.5633 125.441L71.8293 126.994C71.613 123.803 70.8701 120.73 69.6006 117.776L73.2495 116.755Z" fill="#15499B"/>
<path d="M69.6009 117.776C70.8704 120.73 71.6133 123.803 71.8296 126.994L69.4147 127.947L69.1487 127.904L68.6381 124.601C68.2587 122.147 66.9555 120.39 64.7285 119.33L69.6009 117.776Z" fill="#2D62B7"/>
<path d="M58.1119 121.388C57.2927 121.963 56.6651 121.356 55.9789 121.346C54.9647 121.324 54.0055 121.528 53.1012 121.957L52.1278 121.298L49.8672 120.324C53.3406 118.521 55.2183 118.957 58.1119 121.388Z" fill="#699CDB"/>
<path d="M64.7282 119.33C66.9552 120.39 68.2584 122.147 68.6378 124.601C64.347 125.591 59.9871 126.165 55.558 126.325L54.8985 125.133C54.5403 124.073 53.941 123.014 53.1006 121.958C54.0048 121.529 54.9641 121.325 55.9782 121.346C56.6644 121.357 57.2921 121.963 58.1112 121.389L59.6857 122.362C59.7335 122.392 59.7846 122.417 59.8355 122.434C59.8865 122.452 59.9359 122.462 59.9805 122.464C60.0251 122.466 60.0637 122.46 60.0936 122.446C60.1235 122.432 60.1441 122.411 60.1538 122.383L60.8506 120.569C60.8706 120.518 60.8965 120.468 60.9266 120.425C60.9568 120.381 60.9903 120.344 61.0251 120.316C61.0599 120.288 61.0951 120.271 61.1283 120.264C61.1615 120.257 61.192 120.261 61.2176 120.277C61.8382 120.635 62.3133 121.142 62.6431 121.798C62.8169 122.139 62.9977 122.156 63.1857 121.851L64.7282 119.33Z" fill="#7AB2FA"/>
<path d="M49.867 120.324L52.1276 121.298C50.5425 122.198 48.8652 122.856 47.0957 123.271C47.3936 121.728 48.3173 120.746 49.867 120.324Z" fill="#1C489E"/>
<path d="M52.1279 121.298L53.1013 121.957C53.9417 123.014 54.541 124.073 54.8991 125.133C52.463 126.637 49.8176 127.34 46.963 127.245C46.697 125.812 46.7413 124.488 47.0959 123.271C48.8654 122.856 50.5428 122.199 52.1279 121.298Z" fill="#2D62B7"/>
<path d="M146.739 122.032L147.585 131.516C139.979 132.871 132.929 136.101 126.436 141.208C123.117 143.819 118.266 141.101 118.792 136.878C119.074 134.623 120.782 133.543 122.569 132.272C130.165 126.857 137.808 123.559 146.739 122.032Z" fill="#83C8FF"/>
<path d="M165.181 122.074C173.759 123.51 181.55 126.723 188.553 131.713C190.412 133.035 191.497 133.86 191.809 134.186C195.915 138.473 190.341 144.867 184.99 140.75C178.883 136.055 171.993 132.961 164.319 131.468L165.181 122.074Z" fill="#68A7FF"/>
<path d="M68.6384 124.601L69.149 127.904C65.1277 129.216 60.9859 129.957 56.7235 130.127L56.3352 128.893L55.5586 126.324C59.9877 126.164 64.3476 125.59 68.6384 124.601Z" fill="#68A7FF"/>
<path d="M54.8991 125.133L55.5586 126.324L56.3352 128.893L47.7342 131.282L46.9629 127.245C49.8175 127.34 52.4629 126.636 54.8991 125.133Z" fill="#1C489E"/>
<path d="M82.8462 126.974L87.527 127.085C87.5593 127.087 87.5909 127.096 87.619 127.112C87.6472 127.127 87.671 127.149 87.6883 127.175C87.7057 127.2 87.7161 127.23 87.7186 127.259C87.721 127.289 87.7155 127.319 87.7025 127.346L82.394 138.787C82.3484 138.885 82.2785 138.967 82.1932 139.023C82.1079 139.079 82.0111 139.106 81.9153 139.101L78.8568 138.984C77.7965 139.222 76.6919 139.048 75.543 138.463C77.2717 136.851 79.0749 137.202 80.7025 136.41C82.1759 135.697 87.2823 130.936 82.4366 130.984C82.1068 130.988 81.2185 131.326 79.7717 132C78.8355 132.436 78.5962 131.947 79.1228 131.139L81.043 127.277C81.0844 127.193 81.1413 127.122 81.2072 127.072C81.2732 127.022 81.3453 126.995 81.4153 126.995L82.8462 126.974Z" fill="#28468E"/>
<path d="M69.1492 127.904L69.4151 127.947L69.5268 132.846C68.1048 132.991 66.6953 133.215 65.2981 133.516C62.8673 134.037 60.6226 134.106 58.229 134.404C58.1416 134.416 58.0604 134.448 57.9952 134.498C57.9301 134.548 57.8838 134.614 57.8619 134.686C57.8123 134.86 57.7999 135.044 57.8247 135.239C57.3814 134.314 57.1385 133.285 57.096 132.154L56.7236 130.128C60.986 129.957 65.1279 129.216 69.1492 127.904Z" fill="#81B9FD"/>
<path d="M56.3354 128.894L56.7237 130.128L57.0961 132.154L50.3993 134.862L48.8248 135.372C48.6652 134.053 48.3018 132.69 47.7344 131.282L56.3354 128.894Z" fill="#2D62B7"/>
<path d="M79.1228 131.138C78.5962 131.947 78.8356 132.436 79.7718 132C81.2186 131.326 82.1069 130.987 82.4366 130.984C87.2824 130.936 82.176 135.697 80.7026 136.409C79.0749 137.202 77.2718 136.851 75.543 138.462C73.6707 139.278 71.887 140.287 70.192 141.489C65.5891 143.908 61.5625 145.459 58.1122 146.143C56.9207 146.381 55.7381 145.861 54.5643 144.585C52.8409 141.482 51.4526 138.241 50.3994 134.861L57.0962 132.154C57.1388 133.285 57.3817 134.314 57.8249 135.239L59.2026 139.462C59.3338 139.863 59.5111 139.913 59.7345 139.611C60.7345 138.26 61.9473 138.558 63.2292 138.228C65.4668 137.654 67.6246 136.879 69.7026 135.904L75.7345 133.659C75.8898 133.601 76.0243 133.488 76.1175 133.34C76.8143 132.26 77.4101 130.468 79.1228 131.138Z" fill="#ECB4A2"/>
<path d="M69.527 132.846L69.7026 135.904C67.6246 136.879 65.4668 137.654 63.2292 138.229C61.9473 138.558 60.7345 138.261 59.7345 139.612C59.5111 139.913 59.3338 139.863 59.2026 139.463L57.8249 135.239C57.8001 135.044 57.8125 134.86 57.8621 134.686C57.884 134.614 57.9303 134.548 57.9955 134.498C58.0606 134.448 58.1418 134.415 58.2292 134.404C60.6228 134.106 62.8675 134.037 65.2983 133.516C66.6955 133.214 68.1051 132.991 69.527 132.846Z" fill="#6CADFD"/>
<path d="M50.3987 134.861C51.4519 138.241 52.8402 141.482 54.5636 144.585L52.3136 142.606C52.2714 142.571 52.2071 142.539 52.1247 142.512C52.0422 142.486 51.9435 142.465 51.8349 142.452L49.0902 142.154L48.8242 135.372L50.3987 134.861Z" fill="#8DBAF5"/>
<path d="M70.191 141.489L70.457 145.878C70.0421 145.973 69.6981 145.86 69.4251 145.537C69.3749 145.476 69.3097 145.43 69.2378 145.405C69.1659 145.381 69.0904 145.378 69.0208 145.399C62.7868 147.346 55.4091 147.585 49.0527 146.069L49.09 142.154L51.8346 142.452C51.9433 142.465 52.042 142.486 52.1244 142.513C52.2069 142.539 52.2712 142.571 52.3134 142.606L54.5634 144.585C55.7371 145.862 56.9198 146.381 58.1112 146.144C61.5616 145.459 65.5882 143.908 70.191 141.489Z" fill="#7AB2FA"/>
<path d="M168.505 153.724C171.899 170.793 149.798 177.394 143.596 161.835C138.825 144.867 162.612 137.346 168.505 153.724Z" fill="#FEBC33"/>
<path d="M70.457 145.877L70.856 150C69.6468 150.117 67.2141 150.51 63.5581 151.18C59.1113 152 54.1609 151.813 48.707 150.622L49.0528 146.069C55.4092 147.585 62.7868 147.345 69.0209 145.399C69.0905 145.378 69.166 145.38 69.2379 145.405C69.3098 145.43 69.3749 145.475 69.4251 145.537C69.6982 145.86 70.0421 145.973 70.457 145.877Z" fill="#8CC7FE"/>
<path d="M70.8564 150L71.1543 151.713C69.938 153.082 68.2536 153.981 66.1011 154.41C59.9273 155.637 54.0284 155.622 48.4043 154.367L48.7075 150.622C54.1614 151.814 59.1117 152 63.5586 151.181C67.2146 150.511 69.6472 150.117 70.8564 150Z" fill="#7ABEFD"/>
<path d="M71.1544 151.713L72.1597 158.176C64.2058 159.97 56.1615 160.747 48.0267 160.505C47.853 158.442 47.9789 156.396 48.4044 154.367C54.0285 155.622 59.9274 155.637 66.1012 154.41C68.2537 153.981 69.9381 153.082 71.1544 151.713Z" fill="#92CEFD"/>
<path d="M72.1595 158.176C72.2943 159.42 72.4308 160.795 72.5691 162.298C72.6932 163.66 72.7553 165.039 72.7553 166.436C72.7659 183.681 71.8776 201.653 70.0904 220.351C70.0195 221.11 69.617 221.47 68.8829 221.431L63.851 221.144C63.1595 220.733 62.7695 219.968 62.6808 218.851C62.1844 212.642 61.945 207.954 61.9627 204.787C62.0195 194.39 61.5425 184.023 60.5319 173.686C60.5257 173.622 60.5067 173.563 60.4774 173.516C60.4481 173.468 60.4096 173.435 60.367 173.42C60.234 173.373 60.1223 176.346 60.0851 176.697C58.6312 189.913 57.0691 203.115 55.3989 216.303C55.1329 218.399 55.1063 220.048 53.9787 221.894L49.0691 221.697L48.4042 221.474C48.331 221.449 48.2673 221.401 48.2217 221.337C48.176 221.273 48.1506 221.197 48.1489 221.117C47.8085 193.463 47.1914 175.458 48.0266 160.506C56.1613 160.747 64.2056 159.97 72.1595 158.176Z" fill="#FEBC33"/>
<path d="M121.085 175.244L125.245 182.521C125.301 182.619 125.331 182.729 125.334 182.842C125.336 182.954 125.311 183.065 125.26 183.162C125.208 183.259 125.133 183.339 125.042 183.395C124.951 183.45 124.847 183.479 124.74 183.478L97.9046 183.473C97.8191 183.474 97.7351 183.451 97.661 183.409C97.5869 183.366 97.5254 183.305 97.4827 183.231C97.44 183.157 97.4177 183.073 97.418 182.987C97.4183 182.902 97.4412 182.818 97.4844 182.744L101.41 175.856L110.697 159.819C111.172 159 111.647 158.998 112.123 159.814L121.085 175.244ZM112.523 167.805C112.524 167.687 112.501 167.57 112.456 167.461C112.411 167.351 112.345 167.252 112.261 167.169C112.178 167.085 112.079 167.019 111.97 166.973C111.861 166.928 111.744 166.904 111.626 166.904L111.254 166.904C111.136 166.903 111.019 166.926 110.91 166.971C110.8 167.016 110.701 167.082 110.618 167.166C110.534 167.249 110.468 167.348 110.422 167.457C110.377 167.566 110.353 167.683 110.353 167.801L110.339 175.886C110.339 176.004 110.362 176.121 110.407 176.23C110.452 176.339 110.518 176.439 110.601 176.522C110.685 176.606 110.783 176.672 110.892 176.718C111.001 176.763 111.118 176.786 111.236 176.787L111.609 176.787C111.727 176.787 111.844 176.764 111.953 176.719C112.062 176.674 112.161 176.608 112.245 176.525C112.328 176.442 112.395 176.343 112.44 176.234C112.486 176.125 112.509 176.008 112.509 175.89L112.523 167.805ZM112.463 179.037C112.463 178.902 112.437 178.769 112.385 178.644C112.333 178.519 112.258 178.406 112.162 178.311C112.067 178.216 111.954 178.14 111.829 178.088C111.705 178.037 111.571 178.01 111.436 178.01C111.164 178.01 110.903 178.118 110.711 178.311C110.518 178.504 110.41 178.765 110.41 179.037C110.41 179.309 110.518 179.57 110.711 179.763C110.903 179.955 111.164 180.063 111.436 180.063C111.571 180.063 111.705 180.037 111.829 179.985C111.954 179.934 112.067 179.858 112.162 179.763C112.258 179.667 112.333 179.554 112.385 179.43C112.437 179.305 112.463 179.172 112.463 179.037Z" fill="#FEBC33"/>
<path d="M111.626 166.905L111.253 166.904C110.757 166.903 110.354 167.305 110.353 167.801L110.339 175.886C110.338 176.383 110.74 176.786 111.236 176.787L111.609 176.788C112.105 176.788 112.508 176.387 112.509 175.89L112.523 167.805C112.524 167.309 112.122 166.905 111.626 166.905Z" fill="white"/>
<path d="M164.851 181.377C165.397 180.306 165.734 179.161 165.861 177.941C165.871 177.856 165.861 177.772 165.832 177.698C165.803 177.624 165.756 177.563 165.696 177.521C165.207 177.173 164.838 176.741 164.59 176.223C164.561 176.163 164.566 176.08 164.603 175.987C164.641 175.894 164.709 175.796 164.798 175.707L167.755 172.808C167.93 172.635 168.168 172.532 168.429 172.516C168.691 172.5 168.961 172.571 169.196 172.718C170.633 173.618 172.065 173.556 173.494 172.531C173.635 172.43 173.748 172.299 173.824 172.15C173.9 172 173.937 171.837 173.93 171.675C173.906 171.065 174.049 170.5 174.361 169.978C174.413 169.891 174.487 169.819 174.575 169.77C174.664 169.72 174.765 169.695 174.867 169.696L179.654 169.76C179.746 169.762 179.835 169.802 179.901 169.872C179.967 169.942 180.006 170.037 180.01 170.138C180.06 171.446 180.258 172.23 180.606 172.489C182.273 173.741 183.705 173.696 184.904 172.356C185.047 172.197 185.249 172.103 185.468 172.092C185.687 172.081 185.906 172.154 186.079 172.297C187.25 173.258 188.289 174.347 189.196 175.563C189.259 175.647 189.299 175.741 189.314 175.836C189.328 175.931 189.315 176.022 189.276 176.101L188.335 177.962C188.246 178.144 188.215 178.326 188.25 178.473C188.508 179.491 188.978 180.409 189.659 181.228C189.719 181.3 189.792 181.357 189.873 181.397C189.954 181.436 190.041 181.457 190.127 181.457C190.734 181.457 191.308 181.574 191.851 181.808C191.903 181.83 191.948 181.892 191.98 181.982C192.012 182.073 192.028 182.189 192.026 182.313L191.989 186.569C191.989 186.673 191.966 186.772 191.925 186.85C191.884 186.927 191.826 186.98 191.76 187L189.622 187.611C189.518 187.641 189.424 187.69 189.344 187.756C189.264 187.821 189.201 187.9 189.159 187.989L187.994 190.425C187.901 190.623 187.883 190.851 187.942 191.072C188.002 191.294 188.137 191.495 188.324 191.643C189.374 192.469 189.698 193.06 189.297 193.414C188.17 194.414 187.126 195.501 186.165 196.675C186.08 196.778 185.957 196.843 185.824 196.856C185.69 196.869 185.557 196.829 185.452 196.744L184.048 195.606C183.982 195.553 183.901 195.519 183.811 195.505C183.721 195.491 183.625 195.498 183.532 195.526C181.968 196 179.649 196.595 180.191 198.797C180.211 198.878 180.213 198.963 180.196 199.044C180.178 199.126 180.143 199.202 180.091 199.268C180.04 199.333 179.974 199.386 179.9 199.423C179.825 199.459 179.743 199.478 179.659 199.478L174.867 199.468C174.807 199.468 174.747 199.438 174.696 199.383C174.646 199.327 174.608 199.25 174.59 199.164C174.34 197.92 174.271 196.936 173.069 196.26C171.569 195.413 170.221 195.67 169.026 197.031C168.991 197.072 168.95 197.107 168.906 197.135C168.863 197.163 168.817 197.183 168.773 197.194C168.728 197.205 168.685 197.206 168.646 197.198C168.608 197.191 168.574 197.174 168.547 197.148L165.026 193.611C164.96 193.543 164.922 193.452 164.917 193.353C164.912 193.254 164.941 193.154 165 193.069L165.67 192.127C165.836 191.893 165.922 191.764 165.925 191.739C166.18 190.43 165.638 187.308 163.633 187.84C162.789 188.06 162.36 187.776 162.345 186.989L162.255 182.186C162.253 182.108 162.28 182.032 162.333 181.962C162.386 181.893 162.464 181.831 162.563 181.78C162.662 181.73 162.779 181.692 162.907 181.669C163.035 181.647 163.172 181.64 163.308 181.648L164.532 181.723C164.572 181.725 164.626 181.693 164.683 181.63C164.741 181.568 164.8 181.479 164.851 181.377ZM183.92 184.574C183.92 182.771 183.204 181.042 181.929 179.767C180.654 178.492 178.925 177.776 177.122 177.776C175.319 177.776 173.59 178.492 172.315 179.767C171.04 181.042 170.324 182.771 170.324 184.574C170.324 186.377 171.04 188.106 172.315 189.381C173.59 190.656 175.319 191.372 177.122 191.372C178.925 191.372 180.654 190.656 181.929 189.381C183.204 188.106 183.92 186.377 183.92 184.574Z" fill="#DCEFFF"/>
<path d="M245.564 225.59C241.539 227.544 237.921 230.133 234.708 233.356C233.247 233.608 231.715 233.61 230.112 233.362C231.626 232.418 233.165 231.5 234.729 230.606C236.038 229.856 238.554 226.846 236.107 225.649C233.415 224.335 229.5 230.527 228.532 232.367C228.367 232.681 227.841 232.952 227.825 232.441C227.754 230.2 227.699 227.947 227.66 225.681C227.658 225.604 227.68 225.528 227.723 225.462C227.766 225.397 227.827 225.345 227.899 225.314C230.607 224.106 238.038 221.005 236.016 217.553C236.038 217.167 236.187 216.853 236.463 216.612C236.519 216.563 236.56 216.498 236.582 216.423C236.604 216.348 236.605 216.266 236.586 216.186C236.32 215.087 236.625 214.16 237.5 213.404C237.574 213.342 237.653 213.294 237.732 213.263C237.81 213.232 237.887 213.218 237.958 213.223C238.102 213.229 245.644 213.505 245.575 212.484C245.573 212.448 245.562 212.414 245.542 212.382C245.522 212.35 245.495 212.322 245.461 212.298C245.427 212.275 245.387 212.258 245.343 212.247C245.3 212.235 245.254 212.231 245.208 212.234L238.559 212.66C238.453 212.666 238.347 212.649 238.249 212.61C238.15 212.571 238.064 212.512 237.996 212.437C237.929 212.362 237.882 212.274 237.861 212.18C237.839 212.086 237.843 211.99 237.873 211.899L242.511 197.702C242.763 196.94 243.268 196.473 244.027 196.303L247.612 195.495C247.649 195.487 247.682 195.466 247.707 195.437C247.732 195.407 247.747 195.369 247.75 195.33C247.777 195.064 244.745 195.314 244.724 195.319C243.749 195.358 243.445 194.913 243.814 193.984L244.756 191.601C244.786 191.525 244.79 191.441 244.768 191.365C244.746 191.288 244.698 191.223 244.633 191.181C244.194 190.897 243.876 191.076 243.681 191.718C242.578 195.385 241.302 198.635 239.852 201.468C239.77 201.628 239.681 201.631 239.586 201.479C239.213 200.894 237.048 196.675 236.867 196.612C236.697 196.551 236.637 196.644 236.687 196.888C237.137 199.048 237.931 201.069 239.07 202.952C239.108 203.013 239.131 203.09 239.136 203.178C239.142 203.265 239.13 203.361 239.102 203.457C238.016 207.33 236.635 211.087 234.958 214.729C234.872 214.911 234.847 215.099 234.889 215.261C235.034 215.842 234.974 216.378 234.708 216.867C232.064 217.09 229.016 221.644 227.889 223.729C227.651 224.168 227.5 224.136 227.437 223.633L226.745 218.085C226.724 217.915 226.745 217.74 226.808 217.573C226.871 217.407 226.973 217.254 227.107 217.128C229.362 214.995 233.766 210.707 232.921 208.117C232.511 206.856 231.086 206.41 230.027 207.282C228.128 208.846 227.192 212.638 226.703 214.989C226.686 215.069 226.655 215.14 226.613 215.193C226.572 215.247 226.524 215.28 226.474 215.287C226.373 215.298 225.096 209.654 224.926 209.027C224.904 208.95 224.901 208.869 224.917 208.789C224.933 208.709 224.967 208.632 225.016 208.564L228.57 203.59C230.495 205.147 231.695 204.644 232.171 202.08C232.862 198.372 231.453 194.234 230.442 190.165C230.187 189.144 230.109 188.089 230.208 187C230.469 184.17 232.82 182.925 235.096 184.808C236.419 185.901 237.447 187.064 238.181 188.298C239.447 190.425 240.421 189.069 240.979 187.644C242.32 184.229 246.644 173.149 251.713 175.293C253.671 176.122 253.655 178.08 252.788 179.84C251.181 183.112 248.761 186.378 248.937 190.027C248.972 190.768 249.346 191.245 250.059 191.457C251.3 191.83 252.642 191.988 254.086 191.931C258.075 191.782 260.559 196.362 256.112 198.346C254.006 199.287 250.272 200.33 248.846 202.085C248.735 202.217 248.669 202.38 248.655 202.553C248.367 206.138 251.633 207.739 254.788 207.293C257.522 206.904 261.421 205.957 262.74 207.697C267.224 213.596 249.171 223.399 245.564 225.59Z" fill="#FEBC33"/>
<path d="M111.436 180.064C112.003 180.064 112.462 179.604 112.462 179.037C112.462 178.47 112.003 178.011 111.436 178.011C110.869 178.011 110.409 178.47 110.409 179.037C110.409 179.604 110.869 180.064 111.436 180.064Z" fill="white"/>
<path d="M222.495 201.728L224.085 206.175C224.248 206.626 224.367 206.608 224.442 206.122L225.245 201.064C225.585 199.159 227.128 196.271 229.091 197.947C230.596 199.234 229.394 202.202 228.569 203.59L225.016 208.564C224.966 208.632 224.932 208.709 224.917 208.789C224.901 208.869 224.904 208.95 224.926 209.026C225.096 209.654 226.372 215.298 226.473 215.287C226.523 215.279 226.572 215.247 226.613 215.193C226.654 215.14 226.685 215.068 226.702 214.989C227.192 212.638 228.128 208.845 230.027 207.282C231.085 206.409 232.511 206.856 232.92 208.117C233.766 210.707 229.362 214.994 227.106 217.127C226.973 217.254 226.871 217.407 226.808 217.573C226.745 217.74 226.723 217.915 226.745 218.085L227.436 223.633C227.5 224.136 227.651 224.168 227.888 223.728C229.016 221.643 232.064 217.09 234.708 216.867C235.254 216.877 235.69 217.106 236.016 217.553C238.037 221.005 230.606 224.106 227.899 225.314C227.827 225.345 227.765 225.397 227.723 225.462C227.68 225.528 227.658 225.604 227.66 225.681C227.699 227.947 227.754 230.2 227.825 232.441C227.841 232.952 228.367 232.681 228.532 232.367C229.5 230.526 233.415 224.335 236.106 225.649C238.553 226.845 236.037 229.856 234.729 230.606C233.165 231.5 231.626 232.418 230.112 233.361C227.718 233.776 224.936 233.409 222.947 233.42C220.695 233.431 218.454 233.276 216.223 232.957C215.245 231.489 215.367 230.452 216.591 229.845C217.495 229.399 218.424 229.342 219.378 229.675C221.622 230.463 223.832 231.494 226.005 232.771L226.739 232.915C226.772 232.92 226.805 232.918 226.837 232.908C226.869 232.899 226.899 232.882 226.923 232.859C226.948 232.836 226.968 232.808 226.981 232.776C226.995 232.744 227.001 232.71 227 232.675C226.984 231.957 227.33 224.404 225.511 225.798C222.376 226.071 219.325 225.723 216.356 224.755C213.856 222.25 216.053 220.702 218.559 221.244C220.786 221.727 222.881 222.58 224.846 223.803L226.202 224.59C226.394 224.7 226.481 224.658 226.463 224.463L225.825 217.92C225.82 217.875 225.808 217.831 225.788 217.791C225.767 217.751 225.74 217.716 225.708 217.687C225.675 217.658 225.637 217.637 225.597 217.624C225.557 217.611 225.515 217.607 225.474 217.611L222.473 217.973C220.725 218.037 218.993 217.938 217.277 217.675C215 217.324 212.761 215.505 215.708 213.5C215.849 213.403 216.021 213.356 216.197 213.367C217.927 213.473 219.576 213.842 221.144 214.473L224.862 216.415C225.309 216.649 225.504 216.539 225.447 216.085C225.149 213.798 224.672 211.553 224.016 209.351C223.992 209.268 223.938 209.198 223.866 209.153C223.794 209.109 223.709 209.094 223.628 209.111L220.745 209.728C218.614 209.991 216.486 210.03 214.362 209.845C213.323 209.757 212.669 209.209 212.399 208.202C211.325 204.159 219.351 206.436 220.878 207.026L223.181 208.111C223.44 208.232 223.546 208.154 223.5 207.877C223.223 206.143 222.653 204.581 221.787 203.191L220.612 200.17C220.586 200.104 220.532 200.051 220.46 200.021C220.389 199.99 220.305 199.985 220.223 200.005C218.564 200.436 206.096 202.835 209.617 197.361C209.71 197.216 209.846 197.103 210.005 197.037C212.654 195.947 216.92 197.697 219.67 198.835C219.901 198.931 219.958 198.867 219.841 198.643C218.816 196.718 217.589 194.932 216.16 193.287C216.122 193.244 216.06 193.214 215.982 193.201C215.904 193.188 215.812 193.192 215.718 193.213C213.697 193.675 204.468 195.532 204.575 191.67C204.676 187.925 212.218 190.728 214.239 191.723C214.362 191.782 214.484 191.994 214.67 191.867C214.69 191.852 214.706 191.831 214.716 191.808C214.726 191.784 214.73 191.757 214.728 191.729C214.726 191.701 214.718 191.673 214.704 191.646C214.691 191.619 214.672 191.595 214.649 191.574C213.298 190.34 212.069 189.255 210.341 188.377C208.654 187.521 198.16 181.643 203.846 179.409C204.004 179.347 204.182 179.342 204.351 179.393C207.186 180.228 209.362 184.383 210.543 186.989C210.606 187.134 210.715 187.264 210.867 187.377L215.458 190.771C215.677 190.934 215.727 190.895 215.606 190.654C214.521 188.526 213.841 186.278 213.564 183.909C213.411 182.615 213.631 181.776 214.223 181.393C215.156 180.794 216.039 180.838 216.872 181.526C217.419 181.98 217.722 182.698 217.782 183.681C217.952 186.585 217.697 189.454 217.016 192.287C216.996 192.371 216.997 192.463 217.018 192.556C217.039 192.65 217.08 192.743 217.138 192.83L220.005 197.026C220.043 197.084 220.089 197.131 220.136 197.161C220.184 197.191 220.229 197.201 220.266 197.191C220.341 197.174 220.362 197.092 220.33 196.947C219.872 194.837 219.764 192.516 220.005 189.984C220.094 189.023 220.592 188.379 221.5 188.053C222.688 187.624 223.505 187.994 223.952 189.165C224.872 191.585 222.745 196.856 221.601 199.095C221.558 199.178 221.532 199.264 221.525 199.348C221.517 199.432 221.529 199.511 221.559 199.58L222.495 201.728Z" fill="#15499B"/>
<path d="M177.07 189.01C179.517 189.01 181.5 187.026 181.5 184.579C181.5 182.132 179.517 180.148 177.07 180.148C174.622 180.148 172.639 182.132 172.639 184.579C172.639 187.026 174.622 189.01 177.07 189.01Z" fill="#DCEFFF"/>
<path d="M236.016 217.554C235.689 217.107 235.253 216.878 234.707 216.867C234.973 216.378 235.033 215.843 234.888 215.261C234.847 215.1 234.871 214.911 234.957 214.729C236.634 211.087 238.016 207.33 239.101 203.458C239.129 203.361 239.141 203.266 239.135 203.178C239.13 203.091 239.107 203.014 239.069 202.952C237.93 201.069 237.136 199.048 236.686 196.889C236.636 196.644 236.696 196.552 236.867 196.612C237.047 196.676 239.212 200.894 239.585 201.479C239.68 201.632 239.769 201.628 239.851 201.468C241.301 198.635 242.578 195.385 243.68 191.718C243.875 191.077 244.193 190.898 244.633 191.181C244.697 191.223 244.745 191.288 244.767 191.365C244.789 191.442 244.785 191.525 244.755 191.601L243.813 193.984C243.445 194.913 243.748 195.359 244.723 195.32C244.744 195.314 247.776 195.064 247.75 195.33C247.746 195.37 247.731 195.407 247.706 195.437C247.681 195.467 247.648 195.487 247.611 195.495L244.026 196.304C243.267 196.474 242.762 196.94 242.51 197.702L237.872 211.899C237.842 211.99 237.838 212.087 237.86 212.18C237.881 212.274 237.928 212.362 237.995 212.437C238.063 212.512 238.15 212.572 238.248 212.61C238.346 212.649 238.452 212.666 238.558 212.66L245.207 212.234C245.253 212.232 245.299 212.236 245.343 212.247C245.386 212.258 245.426 212.276 245.46 212.299C245.494 212.322 245.522 212.35 245.541 212.382C245.561 212.414 245.572 212.449 245.574 212.484C245.643 213.506 238.101 213.229 237.957 213.224C237.886 213.219 237.809 213.232 237.731 213.263C237.652 213.294 237.573 213.342 237.5 213.405C236.624 214.16 236.319 215.087 236.585 216.187C236.604 216.266 236.603 216.348 236.581 216.423C236.56 216.498 236.518 216.564 236.462 216.612C236.186 216.853 236.037 217.167 236.016 217.554Z" fill="#7875FB"/>
<path d="M225.245 201.063L224.442 206.122C224.367 206.608 224.249 206.625 224.086 206.175L222.495 201.728C223.3 201.03 224.217 200.808 225.245 201.063Z" fill="#8283ED"/>
<path d="M221.787 203.191C222.652 204.581 223.223 206.144 223.5 207.878C223.546 208.154 223.439 208.232 223.18 208.112L220.877 207.027C220.867 205.672 221.17 204.394 221.787 203.191Z" fill="#8283ED"/>
<path d="M221.144 214.473L220.745 209.729L223.628 209.112C223.71 209.094 223.795 209.109 223.867 209.154C223.939 209.198 223.992 209.268 224.016 209.351C224.672 211.553 225.149 213.798 225.447 216.085C225.504 216.539 225.309 216.649 224.862 216.415L221.144 214.473Z" fill="#8580FF"/>
<path d="M224.846 223.803L222.474 217.973L225.474 217.611C225.515 217.606 225.557 217.611 225.597 217.624C225.638 217.637 225.675 217.658 225.708 217.687C225.74 217.716 225.768 217.751 225.788 217.791C225.808 217.831 225.82 217.875 225.825 217.92L226.463 224.462C226.481 224.657 226.394 224.7 226.202 224.59L224.846 223.803Z" fill="#8283ED"/>
<path d="M63.8509 221.144L68.8828 221.431V222.984L63.585 223.005L63.8509 221.144Z" fill="#E0B9B5"/>
<path d="M49.0689 221.697L53.9785 221.894L53.9678 224.07L48.8242 223.804L49.0689 221.697Z" fill="#E0B9B5"/>
<path d="M63.5847 223.006L68.8826 222.984C69.6627 224.226 70.5439 225.188 71.5262 225.873C73.1468 227.685 74.9535 229.073 76.9464 230.038C77.473 230.293 78.5634 231.08 76.9464 231.213C74.0705 231.451 69.5404 231.355 63.356 230.926C63.2819 230.92 63.2128 230.888 63.1632 230.835C63.1136 230.783 63.0874 230.714 63.09 230.644L63.2762 225.133L63.5847 223.006Z" fill="#1C489E"/>
<path d="M48.8246 223.803L53.9682 224.069L54.3565 225.521C54.516 227.196 55.5639 230.914 53.0214 230.936C51.5178 230.95 49.6845 230.817 47.5214 230.537C47.4877 230.533 47.4551 230.522 47.4259 230.505C47.3966 230.488 47.3713 230.465 47.3517 230.437C47.3321 230.41 47.3186 230.378 47.3121 230.345C47.3056 230.312 47.3062 230.277 47.3139 230.244L48.298 225.941L48.8246 223.803Z" fill="#1C489E"/>
<path d="M216.356 224.755C219.324 225.723 222.375 226.07 225.51 225.797C225.95 228.078 226.115 230.402 226.005 232.771C223.831 231.494 221.622 230.462 219.377 229.675C218.423 229.342 217.494 229.398 216.59 229.845C215.367 230.452 215.244 231.489 216.223 232.957C210.113 233.053 204.104 232.333 198.196 230.797C197.26 230.558 195.861 229.957 196.686 228.824C198.308 226.606 212.601 225.936 215.595 225.861C216.106 225.851 216.359 225.482 216.356 224.755Z" fill="#DCEFFF"/>
<path d="M63.277 225.133L63.0909 230.643C63.0882 230.714 63.1145 230.782 63.1641 230.835C63.2136 230.887 63.2827 230.92 63.3568 230.925C69.5412 231.354 74.0714 231.45 76.9472 231.213C78.5643 231.08 77.4738 230.292 76.9472 230.037C74.9543 229.073 73.1476 227.684 71.527 225.872C78.5944 225.603 85.5891 226.168 92.5111 227.569C93.6423 227.799 94.6529 228.264 95.543 228.963C95.6081 229.015 95.6573 229.083 95.6847 229.159C95.712 229.236 95.7164 229.317 95.6972 229.393C94.8249 233.01 68.5749 233.489 64.793 233.537C56.7965 233.633 48.8107 233.33 40.8355 232.627C36.6334 232.255 32.0058 231.963 28.7026 230.159C28.5402 230.07 28.4152 229.941 28.3462 229.792C27.9774 229.005 28.2398 228.473 29.1334 228.197C34.8568 226.441 43.0164 225.877 48.2983 225.941L47.3143 230.245C47.3065 230.278 47.3059 230.312 47.3124 230.345C47.3189 230.378 47.3325 230.41 47.3521 230.438C47.3717 230.465 47.3969 230.488 47.4262 230.506C47.4554 230.523 47.488 230.533 47.5217 230.537C49.6848 230.817 51.5182 230.95 53.0217 230.936C55.5643 230.915 54.5164 227.197 54.3568 225.521L63.277 225.133Z" fill="#DCEFFF"/>
<path d="M226.005 232.772C226.115 230.403 225.95 228.078 225.511 225.798C227.33 224.404 226.984 231.958 227 232.676C227.001 232.71 226.995 232.745 226.981 232.777C226.968 232.808 226.948 232.837 226.923 232.86C226.899 232.883 226.869 232.899 226.837 232.909C226.805 232.919 226.772 232.921 226.739 232.915L226.005 232.772Z" fill="#699CDB"/>
<path d="M245.563 225.591C251.815 226.211 256.572 226.821 259.835 227.421C260.735 227.587 262.03 228.041 263.718 228.782C263.797 228.817 263.865 228.87 263.913 228.935C263.961 229 263.987 229.075 263.989 229.149C264.138 232.851 238.585 233.41 234.707 233.357C237.92 230.133 241.539 227.545 245.563 225.591Z" fill="#DCEFFF"/>
</svg>
